{"title":"Everything is illuminated 2005 DVD9rip English Klam","uid":5900269,"size":1669288005,"categoryP":"video","categoryS":"movies","magnet":"?xt=urn:btih:436d94721d726320cf8cd8b9b6caf16d70525343&amp;dn=Everything+is+illuminated+2005+DVD9rip+English+Klam&amp;tr=udp%3A%2F%2Ftracker.openbittorrent.com%3A80&amp;tr=udp%3A%2F%2Fopen.demonii.com%3A1337&amp;tr=udp%3A%2F%2Ftracker.coppersurfer.tk%3A6969&amp;tr=udp%3A%2F%2Fexodus.desync.com%3A6969","seeders":2,"leechers":0,"uploader":"Klambake","files":-1,"time":1287652715,"description":"With: Elijah Wood, Eugene Hutz en Boris Leskin\n\nA young Jewish American flies to the Ukraine in search of his grandfather's past. He has a photograph and the name of a village. He hires the Odessa Heritage Tours, made up of a gruff old man and his English-speaking grandson. The three, plus grandfather's deranged dog, travel in an old car from Odessa into Ukraine's heart. Jonathan, the American, is a collector, putting things he finds into small plastic bags, so he will remember. Alex, the interpreter, is an archetypal wild and crazy guy. Alex asks the old man, &quot;Was there anti-Semitism in the Ukraine before the war?&quot; Will they find the village? The past illuminates everything.\n\nGeneral:\n\nComplete name                    : Klambake\\Everything is\\Illuminated.avi\nFormat                           : AVI\nFormat/Info                      : Audio Video Interleave\nFile size                        : 1.55 GiB\nDuration                         : 1h 41mn\nOverall bit rate                 : 2 198 Kbps\n\nVideo:\n\nFormat                           : MPEG-4 Visual\nFormat profile                   : Simple@L3\nFormat settings, BVOP            : No\nFormat settings, QPel            : No\nFormat settings, GMC             : No warppoints\nFormat settings, Matrix          : Default (H.263)\nCodec ID                         : XVID\nCodec ID/Hint                    : XviD\nDuration                         : 1h 41mn\nBit rate                         : 1 803 Kbps\nWidth                            : 720 pixels\nHeight                           : 576 pixels\nDisplay aspect ratio             : 5:4\nFrame rate                       : 25.000 fps\nStandard                         : PAL\nColor space                      : YUV\nChroma subsampling               : 4:2:0\nBit depth                        : 8 bits\nScan type                        : Progressive\nBits/(Pixel*Frame)               : 0.174\nStream size                      : 1.27 GiB (82%)\nWriting library                  : XviD 1.1.2 (UTC 2006-11-01)\n\nAudio:\n\nFormat                           : AC-3\nFormat/Info                      : Audio Coding 3\nMode extension                   : CM (complete main)\nCodec ID                         : 2000\nDuration                         : 1h 41mn\nBit rate mode                    : Constant\nBit rate                         : 384 Kbps\nChannel(s)                       : 6 channels\nChannel positions                : Front: L C R, Side: L R, LFE\nSampling rate                    : 48.0 KHz\nBit depth                        : 16 bits\nStream size                      : 278 MiB (17%)\nAlignment                        : Aligned on interleaves\nInterleave, duration             : 32 ms (0.80 video frame)\nInterleave, preload duration     : 544 ms","torrent":{"xt":"urn:btih:436d94721d726320cf8cd8b9b6caf16d70525343","amp;dn":"Everything+is+illuminated+2005+DVD9rip+English+Klam","amp;tr":["udp%3A%2F%2Ftracker.openbittorrent.com%3A80","udp%3A%2F%2Fopen.demonii.com%3A1337","udp%3A%2F%2Ftracker.coppersurfer.tk%3A6969","udp%3A%2F%2Fexodus.desync.com%3A6969"],"infoHash":"436d94721d726320cf8cd8b9b6caf16d70525343","infoHashBuffer":{"type":"Buffer","data":[67,109,148,114,29,114,99,32,207,140,216,185,182,202,241,109,112,82,83,67]},"announce":[],"urlList":[]}}